# xmcd
#
# Track frame offsets: 
#        150
#        17056
#        29157
#        48771
#        63336
#        74545
#        87376
#        110560
#        139259
#        150660
#
# Disc length: 2141 seconds
#
# Revision: 0
# Processed by: cddbd v1.5.2PL0 Copyright (c) Steve Scherf et al.
# Submitted via: ExactAudioCopy v0.95b3
#
DISCID=8b085b0a
DTITLE=Stoned Circus - Revisited   1970
DYEAR=1900
DGENRE=
TTITLE0=Gotta Find A Way
TTITLE1=Feel
TTITLE2=Try Love
TTITLE3=New World
TTITLE4=Trust
TTITLE5=Sweet Lovin´
TTITLE6=Instrumental
TTITLE7=Gonna Leave You
TTITLE8=Corina
TTITLE9=Whole Lotta Love
EXTD=
EXTT0=
EXTT1=
EXTT2=
EXTT3=
EXTT4=
EXTT5=
EXTT6=
EXTT7=
EXTT8=
EXTT9=
PLAYORDER=
